<svg xmlns="http://www.w3.org/2000/svg" viewBox="0 0 1600 900">
    <defs>
        <linearGradient id="goldGradient" x1="0%" y1="0%" x2="100%" y2="100%">
            <stop offset="0%" style="stop-color:#262626;stop-opacity:1" />
            <stop offset="50%" style="stop-color:#22626;stop-opacity:1" />
            <stop offset="100%" style="stop-color:#262626;stop-opacity:1" />
        </linearGradient>
        <clipPath id="roundedCorners">
            <rect x="0" y="0" width="1600" height="900" rx="45" ry="45" />
        </clipPath>
    </defs>

    <g clip-path="url(#roundedCorners)">
        <rect width="1600" height="900" fill="url(#goldGradient)" />

        <g transform="translate(640,200) scale(2)">
            <g>
                <path d="M91.9023 111.67L110.123 129.88L159.998 80.0048L123.627 79.9453L91.9023 111.67Z"
                    fill="#4169E1" />
                <path d="M61.8438 18.1609L80.0046 0L160 80.005L123.628 79.9455L61.8438 18.1609Z" fill="#4F4F4F" />
                <path d="M68.0959 48.33L49.8854 30.1196L0 80.0051L36.3713 80.0546L68.0959 48.33Z" fill="#4169E1" />
                <path d="M98.1658 141.839L80.005 160L0 80.0049L36.3713 80.0544L98.1658 141.839Z" fill="#4F4F4F" />
            </g>
            <path d="M80 60 Q60 80 80 100 Q100 80 80 60 Z" fill="#4169E1">
                <animate attributeName="d" values="M80 60 Q60 80 80 100 Q100 80 80 60 Z;
                         M80 62 Q62 80 80 98 Q98 80 80 62 Z;
                         M80 60 Q60 80 80 100 Q100 80 80 60 Z" dur="2s" repeatCount="indefinite" />
            </path>
            <!-- Highlight -->
            <path d="M75 70 Q70 75 75 80 Q80 75 75 70 Z" fill="#6495ED">
                <animate attributeName="d" values="M75 70 Q70 75 75 80 Q80 75 75 70 Z;
                         M76 71 Q71 76 76 81 Q81 76 76 71 Z;
                         M75 70 Q70 75 75 80 Q80 75 75 70 Z" dur="2s" repeatCount="indefinite" />
            </path>
        </g>

        <text x="800" y="680" font-family="'Dancing Script', cursive" font-size="180" font-weight="900" fill="#4F4F4F"
            text-anchor="middle">Liquidity</text>
    </g>
</svg>