<?xml version="1.0" encoding="UTF-8"?>
<svg version="1.1" xmlns="http://www.w3.org/2000/svg" width="512" height="512">
<path d="M0 0 C168.96 0 337.92 0 512 0 C512 168.96 512 337.92 512 512 C343.04 512 174.08 512 0 512 C0 343.04 0 174.08 0 0 Z " fill="#FEFEFE" transform="translate(0,0)"/>
<path d="M0 0 C10.914674 9.38278993 17.89544694 21.68736434 19.24414062 36.14624023 C20.02546036 53.21362151 17.6894391 69.33364944 10.01953125 84.73828125 C9.31763672 86.19427734 9.31763672 86.19427734 8.6015625 87.6796875 C3.97259796 96.44614628 -2.53714812 103.28393329 -9.98046875 109.73828125 C-10.64046875 109.73828125 -11.30046875 109.73828125 -11.98046875 109.73828125 C-11.38359253 110.80357056 -11.38359253 110.80357056 -10.7746582 111.89038086 C-9.27420492 114.56853197 -7.77389685 117.24676435 -6.27368164 119.92504883 C-5.31472507 121.63694268 -4.3556066 123.34874583 -3.39648438 125.06054688 C-2.16481716 127.25949201 -0.9344843 129.45918514 0.29443359 131.65966797 C1.3862845 133.60818762 2.48475009 135.55302806 3.59228516 137.49267578 C4.04909668 138.29688965 4.5059082 139.10110352 4.9765625 139.9296875 C5.37464111 140.62392822 5.77271973 141.31816895 6.18286133 142.03344727 C7.01953125 143.73828125 7.01953125 143.73828125 7.01953125 145.73828125 C-9.15046875 145.73828125 -25.32046875 145.73828125 -41.98046875 145.73828125 C-49.98046875 126.73828125 -49.98046875 126.73828125 -49.98046875 124.73828125 C-50.563125 124.76446533 -51.14578125 124.79064941 -51.74609375 124.81762695 C-70.88591794 125.56057414 -86.05187912 123.59573414 -100.98046875 110.73828125 C-111.58680139 100.08029439 -116.16622053 87.03662456 -116.30981445 72.22558594 C-116.30425537 71.21915039 -116.29869629 70.21271484 -116.29296875 69.17578125 C-116.2880542 68.12165039 -116.28313965 67.06751953 -116.27807617 65.98144531 C-115.958365 44.49029622 -109.35577132 26.00510125 -94.484375 10.15234375 C-70.52665916 -12.94573486 -27.93957112 -21.20185017 0 0 Z " fill="#505050" transform="translate(386.98046875,282.26171875)"/>
<path d="M0 0 C6.9206778 5.66732853 13.14575189 12.01223224 19.45288086 18.33935547 C20.70491403 19.59167105 21.9571681 20.84376579 23.20962524 22.09565735 C26.59357652 25.47932276 29.97444461 28.86605349 33.3547523 32.25335836 C36.89368563 35.79856035 40.43546779 39.34091396 43.97694397 42.88357544 C50.67587899 49.58561344 57.37226169 56.29019557 64.06772286 62.99570382 C71.69332833 70.63250256 79.32178743 78.26644807 86.9504832 85.9001596 C102.63682453 101.59694191 118.31959297 117.29728973 134 133 C132.43355241 136.28411642 130.7158854 138.5952081 128.203125 141.24609375 C127.42050293 142.07375244 126.63788086 142.90141113 125.83154297 143.75415039 C122.20149388 147.52735538 118.55728439 151.28591846 114.89355469 155.02636719 C112.97335653 156.99081922 111.0745313 158.97270876 109.19238281 160.97363281 C90.03867465 181.3069732 90.03867465 181.3069732 75.84155273 182.63745117 C61.82710947 183.96007261 49.83624245 192.71427445 40.19140625 202.375 C38 204 38 204 36.01953125 203.984375 C31.31611275 201.69179964 27.72512268 198.45985089 25 194 C24.82004688 189.4086248 25.69169049 185.38588733 27 181 C26.01 180.67 25.02 180.34 24 180 C24.5057959 179.5656665 25.0115918 179.13133301 25.53271484 178.68383789 C34.98835894 170.37582073 43.75218209 161.35643081 52.625 152.4375 C54.31356813 150.74390733 56.00236828 149.05054596 57.69140625 147.35742188 C61.79695124 143.24094571 65.89961681 139.12161747 70 135 C68.52630723 131.59109215 66.62192589 129.37478178 64.00106812 126.76055908 C63.16531754 125.92205917 62.32956696 125.08355927 61.4684906 124.21965027 C60.54995804 123.30830826 59.63142548 122.39696625 58.68505859 121.45800781 C57.70897691 120.48249044 56.73333574 119.50653212 55.75810242 118.53016663 C53.1119385 115.88342897 50.45965413 113.24290245 47.80623198 110.6034441 C45.03331342 107.84302927 42.26605875 105.07694845 39.49819946 102.3114624 C34.25715988 97.07663863 29.01104297 91.84693394 23.76308501 86.61904693 C17.7882296 80.66654735 11.81905321 74.70836677 5.85034823 68.74970102 C-6.42679086 56.49346622 -18.71104648 44.24438858 -31 32 C-30.06322155 30.89666299 -29.12492192 29.79461745 -28.18600464 28.69309998 C-27.66365675 28.07925666 -27.14130886 27.46541334 -26.60313225 26.83296871 C-24.16907233 24.04994462 -21.57173415 21.44780087 -18.9453125 18.84765625 C-18.39890106 18.30265976 -17.85248962 17.75766327 -17.28952026 17.19615173 C-15.57037942 15.48253882 -13.84776796 13.77246556 -12.125 12.0625 C-10.94768362 10.89020796 -9.77059826 9.71768386 -8.59375 8.54492188 C-5.73182511 5.69393018 -2.86678543 2.84610385 0 0 Z " fill="#4F4F4F" transform="translate(249,84)"/>
<path d="M0 0 C2.78690044 1.34481542 4.84142643 2.5945303 7.02441406 4.79736328 C7.58469299 5.35779327 8.14497192 5.91822327 8.722229 6.49563599 C9.31404968 7.09777924 9.90587036 7.69992249 10.515625 8.3203125 C11.13145447 8.93897186 11.74728394 9.55763123 12.3817749 10.19503784 C14.34260336 12.16703814 16.29635301 14.14588737 18.25 16.125 C19.58026799 17.46530164 20.910992 18.80515083 22.2421875 20.14453125 C25.5001015 23.42446589 28.75168533 26.71055942 32 30 C30.45434088 33.7042893 28.20597607 36.00720479 25.35083008 38.796875 C24.88076035 39.25920532 24.41069061 39.72153564 23.92637634 40.19787598 C22.90922084 41.19742675 21.88986966 42.19474707 20.86857033 43.19006348 C19.25403626 44.76511607 17.64718787 46.34763484 16.04240417 47.93261719 C11.48036757 52.43664871 6.90871573 56.9307332 2.32250977 61.41015625 C-0.48495174 64.15330587 -3.28019557 66.90840903 -6.06801796 69.67150879 C-7.13318105 70.72238522 -8.20300218 71.76856145 -9.27745628 72.80993652 C-10.7761839 74.26312977 -12.25894805 75.73096405 -13.73901367 77.203125 C-14.58791672 78.03489258 -15.43681976 78.86666016 -16.31144714 79.72363281 C-18.19454343 81.79807685 -18.19454343 81.79807685 -18.02584839 84.01997375 C-16.6627817 86.65087697 -14.95793769 88.3929752 -12.84741211 90.47729492 C-11.52615578 91.79336983 -11.52615578 91.79336983 -10.1782074 93.1360321 C-9.21133762 94.0842641 -8.24438101 95.03240756 -7.27734375 95.98046875 C-6.29155801 96.95811746 -5.306506 97.93650652 -4.32215881 98.91560364 C-1.73270165 101.48795704 0.86519868 104.05160396 3.46539307 106.61309814 C7.63319057 110.72164465 11.7882908 114.84302446 15.94293022 118.96486855 C17.39832768 120.40625406 18.85744415 121.84379077 20.31715393 123.2808075 C21.19483932 124.14873428 22.07252472 125.01666107 22.97680664 125.91088867 C23.75544571 126.67825851 24.53408478 127.44562836 25.33631897 128.23625183 C27 130 27 130 27 131 C24.03 131 21.06 131 18 131 C18.03158203 131.96494385 18.06316406 132.9298877 18.09570312 133.92407227 C18.09172376 138.45834941 17.30191353 142.76952394 16.46875 147.21484375 C16.31337769 148.07058487 16.15800537 148.92632599 15.9979248 149.80799866 C15.50436255 152.51892003 15.00232172 155.22818953 14.5 157.9375 C14.16219744 159.78440233 13.82495207 161.63140666 13.48828125 163.47851562 C12.66529563 167.98688274 11.8347067 172.49378892 11 177 C10.34 177 9.68 177 9 177 C7.67773438 175.62573242 7.67773438 175.62573242 6.09375 173.66796875 C3.09249521 170.1273287 -0.09858657 166.98721428 -3.53125 163.86328125 C-5.01730079 162.48172227 -6.5000456 161.09668163 -7.98242188 159.71118164 C-8.99749468 158.77563594 -10.02375153 157.85208701 -11.06054688 156.94067383 C-19.69251284 149.31422849 -19.69251284 149.31422849 -20.46484375 143.50146484 C-20.15673187 139.09314195 -19.39545262 135.18635787 -18 131 C-19.29035156 131.0928125 -20.58070313 131.185625 -21.91015625 131.28125 C-23.62751115 131.35632562 -25.34496675 131.42912169 -27.0625 131.5 C-27.91005859 131.56703125 -28.75761719 131.6340625 -29.63085938 131.703125 C-35.99219242 131.89961405 -35.99219242 131.89961405 -38.69778442 129.48448181 C-39.21275482 128.83081131 -39.72772522 128.17714081 -40.25830078 127.50366211 C-44.15242167 122.77735328 -48.37318062 118.48256809 -52.70703125 114.16015625 C-53.91693977 112.94881264 -53.91693977 112.94881264 -55.15129089 111.71299744 C-56.84173886 110.02187355 -58.53343195 108.33199344 -60.22631836 106.64331055 C-62.8258748 104.04915298 -65.41999675 101.44964575 -68.01367188 98.84960938 C-69.66113742 97.20280389 -71.30891274 95.55630824 -72.95703125 93.91015625 C-73.73407913 93.13108414 -74.51112701 92.35201202 -75.3117218 91.54933167 C-76.02974472 90.83446091 -76.74776764 90.11959015 -77.48754883 89.38305664 C-78.43516838 88.43663048 -78.43516838 88.43663048 -79.40193176 87.47108459 C-80.95039771 85.9094928 -80.95039771 85.9094928 -83 85 C-81.62792243 81.92321319 -80.06507306 79.81719358 -77.68441772 77.44390869 C-77.00012192 76.75686356 -76.31582611 76.06981842 -75.61079407 75.36195374 C-74.48546516 74.24741066 -74.48546516 74.24741066 -73.33740234 73.11035156 C-72.54707108 72.31972824 -71.75673981 71.52910492 -70.94245911 70.71452332 C-68.32833109 68.10178891 -65.70718956 65.49621046 -63.0859375 62.890625 C-61.27232057 61.08073808 -59.45914463 59.27040917 -57.64639282 57.45965576 C-53.36125966 53.18137929 -49.07170349 48.90758699 -44.77997172 44.63593364 C-39.89336221 39.77168982 -35.0124401 34.90175614 -30.13198543 30.03133821 C-20.09430211 20.01455201 -10.04950407 10.00492579 0 0 Z " fill="#606060" transform="translate(199,134)"/>
<path d="M0 0 C13.86 0 27.72 0 42 0 C41.33309327 5.33525384 40.61447388 10.62014152 39.73046875 15.91796875 C39.5492321 17.01337982 39.5492321 17.01337982 39.36433411 18.13092041 C38.97410978 20.48346062 38.58104596 22.83551333 38.1875 25.1875 C37.98483521 26.40374557 37.98483521 26.40374557 37.77807617 27.64456177 C36.1573538 37.36015022 34.46584439 47.05040534 32.54858398 56.71240234 C29.6297755 71.72904341 27.41589798 86.90063765 25 102 C37.87 102 50.74 102 64 102 C63 113 63 113 59 133 C31.94 133 4.88 133 -23 133 C-22.34 129.04 -21.68 125.08 -21 121 C-20.5440131 118.25394903 -20.08825998 115.50785923 -19.6328125 112.76171875 C-11.94063082 66.42095912 -11.94063082 66.42095912 -9.0625 52.5 C-6.97085108 42.37746506 -5.35647955 32.18089929 -3.75024414 21.97265625 C-3.55164795 20.71195312 -3.35305176 19.45125 -3.1484375 18.15234375 C-2.97489746 17.03851318 -2.80135742 15.92468262 -2.62255859 14.77709961 C-1.80897307 9.84102837 -0.89490506 4.92197782 0 0 Z " fill="#4F4F4F" transform="translate(129,273)"/>
<path d="M0 0 C13.86 0 27.72 0 42 0 C41.15616532 7.59451214 40.07674446 15.03611006 38.8125 22.5625 C38.65068237 23.53183472 38.65068237 23.53183472 38.4855957 24.52075195 C36.67048786 35.37570499 34.67903563 46.19247657 32.61813354 57.00311279 C30.50002938 68.12540144 28.58902318 79.26879098 26.76049805 90.44262695 C25.27889195 99.45337083 23.64880961 108.42539148 21.89453125 117.38671875 C20.88694646 122.5830403 19.94685982 127.79227101 19 133 C5.14 133 -8.72 133 -23 133 C-17.03484657 97.88693777 -17.03484657 97.88693777 -14.9375 87.25 C-12.97527869 77.26602866 -11.38819176 67.2251135 -9.78930664 57.17822266 C-8.29110775 47.76564564 -6.69726748 38.37861519 -5 29 C-4.47627785 26.06300898 -3.95670425 23.12529254 -3.4375 20.1875 C-3.20933594 18.90230469 -2.98117188 17.61710937 -2.74609375 16.29296875 C-1.80304204 10.86671833 -0.90544211 5.43265265 0 0 Z " fill="#4F4F4F" transform="translate(224,273)"/>
<path d="M0 0 C7.94544579 -0.1627275 15.89018702 -0.28683559 23.83689117 -0.3626852 C27.52760483 -0.39910392 31.21717244 -0.44843693 34.90722656 -0.52807617 C38.47349677 -0.60455564 42.03867021 -0.64607562 45.60569763 -0.6641407 C47.61774929 -0.6832285 49.62936401 -0.7378089 51.64074707 -0.79307556 C61.90418714 -0.79744933 61.90418714 -0.79744933 66.31445312 2.96899414 C67.56830583 4.28905072 68.7959412 5.63437252 70 7 C71.48931124 8.45991363 72.98579554 9.91253529 74.48828125 11.35888672 C76.09903517 12.96313292 77.70699959 14.57018369 79.3125 16.1796875 C80.16682617 17.03305695 81.02115234 17.88642639 81.90136719 18.76565552 C83.69084428 20.55445639 85.47907637 22.34450353 87.26611328 24.13574219 C90.01611116 26.89114281 92.77146563 29.64110697 95.52734375 32.390625 C97.26855031 34.13249153 99.0094471 35.8746678 100.75 37.6171875 C101.57798096 38.44314423 102.40596191 39.26910095 103.2590332 40.12008667 C104.39151489 41.2572966 104.39151489 41.2572966 105.546875 42.41748047 C106.21557617 43.08697723 106.88427734 43.756474 107.57324219 44.44625854 C109 46 109 46 109 47 C106.03 47 103.06 47 100 47 C100.04737305 48.44741577 100.04737305 48.44741577 100.09570312 49.92407227 C100.09172376 54.45834941 99.30191353 58.76952394 98.46875 63.21484375 C98.31337769 64.07058487 98.15800537 64.92632599 97.9979248 65.80799866 C97.50436255 68.51892003 97.00232172 71.22818953 96.5 73.9375 C96.16219744 75.78440233 95.82495207 77.63140666 95.48828125 79.47851562 C94.66529563 83.98688274 93.8347067 88.49378892 93 93 C92.34 93 91.68 93 91 93 C89.67773437 91.62573242 89.67773437 91.62573242 88.09375 89.66796875 C85.09249521 86.1273287 81.90141343 82.98721428 78.46875 79.86328125 C76.98269921 78.48172227 75.4999544 77.09668163 74.01757812 75.71118164 C73.00250532 74.77563594 71.97624847 73.85208701 70.93945312 72.94067383 C62.30748716 65.31422849 62.30748716 65.31422849 61.53515625 59.50146484 C61.84326813 55.09314195 62.60454738 51.18635787 64 47 C62.70964844 47.0928125 61.41929687 47.185625 60.08984375 47.28125 C58.37248885 47.35632562 56.65503325 47.42912169 54.9375 47.5 C54.08994141 47.56703125 53.24238281 47.6340625 52.36914062 47.703125 C46.00691543 47.89964161 46.00691543 47.89964161 43.31237793 45.49217224 C42.80001587 44.84047562 42.28765381 44.18877899 41.75976562 43.51733398 C37.7836186 38.69142173 33.4460004 34.33713745 29.00390625 29.94140625 C27.75358864 28.69676857 27.75358864 28.69676857 26.47801208 27.42698669 C23.84193653 24.80303508 21.20262462 22.18237715 18.5625 19.5625 C15.06097896 16.08746026 11.56270792 12.6091963 8.06640625 9.12890625 C7.25716202 8.32796036 6.44791779 7.52701447 5.614151 6.70179749 C4.87595627 5.96690598 4.13776154 5.23201447 3.37719727 4.47485352 C2.39626854 3.50178001 2.39626854 3.50178001 1.39552307 2.50904846 C0 1 0 1 0 0 Z " fill="#4F4F4F" transform="translate(117,218)"/>
<path d="M0 0 C-1.45990952 3.32031278 -3.30773461 5.6201265 -5.796875 8.24609375 C-6.97080811 9.48758179 -6.97080811 9.48758179 -8.16845703 10.75415039 C-11.79850612 14.52735538 -15.44271561 18.28591846 -19.10644531 22.02636719 C-21.02664347 23.99081922 -22.9254687 25.97270876 -24.80761719 27.97363281 C-43.96132535 48.3069732 -43.96132535 48.3069732 -58.15844727 49.63745117 C-72.17289053 50.96007261 -84.16375755 59.71427445 -93.80859375 69.375 C-96 71 -96 71 -97.98046875 70.984375 C-102.68388725 68.69179964 -106.27487732 65.45985089 -109 61 C-109.17995312 56.4086248 -108.30830951 52.38588733 -107 48 C-107.99 47.67 -108.98 47.34 -110 47 C-109.493479 46.56421631 -108.98695801 46.12843262 -108.46508789 45.67944336 C-99.92569245 38.16937024 -91.94726721 30.09840826 -83.91967773 22.05004883 C-81.41569873 19.54065156 -78.90634427 17.03671698 -76.39648438 14.53320312 C-74.80436625 12.94042522 -73.21255781 11.34733768 -71.62109375 9.75390625 C-70.87016953 9.00500626 -70.1192453 8.25610626 -69.3455658 7.48451233 C-68.65717117 6.79296555 -67.96877655 6.10141876 -67.25952148 5.38891602 C-66.65236801 4.78096695 -66.04521454 4.17301788 -65.41966248 3.54664612 C-63.90447011 2.03841 -63.90447011 2.03841 -63 0 C-55.08123253 -0.15371916 -47.16238929 -0.30190064 -39.24338722 -0.4429636 C-35.56649721 -0.50863598 -31.88966339 -0.57623368 -28.21289062 -0.64819336 C-24.66628415 -0.71753528 -21.1196193 -0.78186953 -17.5728569 -0.84269524 C-16.21800804 -0.86681786 -14.86319036 -0.89276147 -13.50841141 -0.92053413 C-11.61458557 -0.95904959 -9.72062114 -0.99055898 -7.82666016 -1.02172852 C-6.20783432 -1.05170677 -6.20783432 -1.05170677 -4.55630493 -1.08229065 C-2 -1 -2 -1 0 0 Z " fill="#616161" transform="translate(383,217)"/>
<path d="M0 0 C6.22716999 6.27769469 7.29953711 12.09849204 7.31689453 20.67016602 C7.1357233 30.64464896 3.45776962 39.38694132 -3 47 C-9.62345196 53.17305722 -15.93262675 55.35510984 -25 55.3125 C-26.02867187 55.33666992 -26.02867187 55.33666992 -27.078125 55.36132812 C-32.50138538 55.36650299 -36.55916537 54.22163347 -40.609375 50.53515625 C-47.28610567 41.91485672 -47.08297543 33.60561392 -46 23 C-43.50874096 12.64570463 -37.77267608 5.13625659 -28.8125 -0.4375 C-19.67760463 -5.71703795 -9.05810769 -5.62818739 0 0 Z " fill="#FDFDFD" transform="translate(358,313)"/>
<path d="M0 0 C2.99943905 1.34572887 5.08076179 2.83537101 7.39160156 5.16455078 C8.0319635 5.80506378 8.67232544 6.44557678 9.33209229 7.10549927 C10.01140808 7.79513763 10.69072388 8.484776 11.390625 9.1953125 C12.09523865 9.90275604 12.79985229 10.61019958 13.52581787 11.33908081 C15.7719539 13.59639862 18.01103009 15.86057633 20.25 18.125 C21.77297717 19.65800953 23.29640939 21.19056715 24.8203125 22.72265625 C28.55216815 26.47654573 32.27825351 30.23608914 36 34 C34.65427113 36.99943905 33.16462899 39.08076179 30.83544922 41.39160156 C30.19493622 42.0319635 29.55442322 42.67232544 28.89450073 43.33209229 C27.86004318 44.35106598 27.86004318 44.35106598 26.8046875 45.390625 C26.09724396 46.09523865 25.38980042 46.79985229 24.66091919 47.52581787 C22.40360138 49.7719539 20.13942367 52.01103009 17.875 54.25 C16.34199047 55.77297717 14.80943285 57.29640939 13.27734375 58.8203125 C9.52345427 62.55216815 5.76391086 66.27825351 2 70 C-2.90473901 65.88670129 -7.5219528 61.61457539 -12.02734375 57.0703125 C-12.66112442 56.43511688 -13.29490509 55.79992126 -13.94789124 55.14547729 C-15.94681406 53.14101284 -17.94220784 51.13307786 -19.9375 49.125 C-21.30250133 47.75497611 -22.6677336 46.38518226 -24.03320312 45.015625 C-27.35814211 41.67973457 -30.67992353 38.34072964 -34 35 C-29.97251947 30.16701194 -25.75620587 25.61889996 -21.2890625 21.19140625 C-20.36956314 20.27402931 -20.36956314 20.27402931 -19.43148804 19.33811951 C-17.49835436 17.41052441 -15.56175013 15.48646072 -13.625 13.5625 C-12.30315301 12.24567596 -10.98153628 10.92862074 -9.66015625 9.61132812 C-6.44275701 6.40487627 -3.22224319 3.20158371 0 0 Z " fill="#CFB16E" transform="translate(247,182)"/>
</svg>
